.
 
http://www.scenetime.com    -   SceneTime [ We been having it ] !!!


How come you press harder on a remote control when you know the battery is dead? so you better seed to get speed ;)

        Seed back for speed


...................................NFO:.................................................[img]http://leetleech.org/images/21767070951842456429.jpg[/img]
[img]http://leetleech.org/images/97742001711866743763.png[/img]
[img]http://leetleech.org/images/90321172528146562329.png[/img]
[img]http://leetleech.org/images/35058195045787222026.png[/img]
[img]http://leetleech.org/images/84671270845603295024.png[/img]
[img]http://leetleech.org/images/00001777693885729088.png[/img]
[img]http://leetleech.org/images/16032503938786119837.png[/img]
General
Complete name                    : C:\Users\coop\Desktop\The.Way.Out.West.2011.Dvd.Rip.Ac3.5.1.Xvid.TCM\T.W.O.W.TCM.avi
Format                           : AVI
Format/Info                      : Audio Video Interleave
Format profile                   : OpenDML
File size                        : 1.07 GiB
Duration                         : 1h 22mn
Overall bit rate                 : 1 850 Kbps
Movie name                       : T.W.O.W.TCM
Writing application              : Lavf52.78.4
Original source form/Name        : THE_MOUNTIE_NTSC_DVD_5
Encoded by                       : Cooperman
Copyrigth                        : TCM

Video
ID                               : 0
Format                           : MPEG-4 Visual
Format profile                   : Advanced Simple@L5
Format settings, BVOP            : 2
Format settings, QPel            : No
Format settings, GMC             : No warppoints
Format settings, Matrix          : Default (H.263)
Muxing mode                      : Packed bitstream
Codec ID                         : DX50
Codec ID/Hint                    : DivX 5
Duration                         : 1h 22mn
Bit rate                         : 1 363 Kbps
Width                            : 720 pixels
Height                           : 310 pixels
Display aspect ratio             : 2.35:1
Frame rate                       : 25.000 fps
Color space                      : YUV
Chroma subsampling               : 4:2:0
Bit depth                        : 8 bits
Scan type                        : Progressive
Compression mode                 : Lossy
Bits/(Pixel*Frame)               : 0.244
Stream size                      : 769 MiB (70%)
Writing library                  : XviD 1.2.1 (UTC 2008-12-04)

Audio
ID                               : 1
Format                           : AC-3
Format/Info                      : Audio Coding 3
Mode extension                   : CM (complete main)
Codec ID                         : 2000
Duration                         : 1h 22mn
Bit rate mode                    : Constant
Bit rate                         : 448 Kbps
Channel(s)                       : 6 channels
Channel positions                : Front: L C R, Side: L R, LFE
Sampling rate                    : 48.0 KHz
Bit depth                        : 16 bits
Compression mode                 : Lossy
Stream size                      : 253 MiB (23%)
Alignment                        : Aligned on interleaves
Interleave, duration             : 32 ms (0.80 video frame)
Interleave, preload duration     : 32 ms
Subs                             : No

source file : THE_MOUNTIE_NTSC_DVD_5[no grp]
thanx whoever you are! :)

77x14.mb rars[main.movie.avi]
snaps.n.thumbs
sfv
nfo
t.c.m@hushmail.com
Enjoy the movie!
GREATINGS TO ALL THE P2P PLACES I LURK AT!
AND A FOOK YOU TO ALL RETAGERS!!!